# Blender 5.0.1
# www.blender.org
mtllib project_models_test.mtl
o Cube
v 4.641536 -0.050477 0.358464
v 4.641536 -0.050477 -0.358464
v 5.358464 -0.050477 0.358464
v 5.358464 -0.050477 -0.358464
v 4.806609 0.666451 0.193391
v 4.641536 0.009878 0.358464
v 4.806609 0.666451 -0.193391
v 4.641536 0.009878 -0.358464
v 5.193391 0.666451 0.193391
v 5.358464 0.009878 0.358464
v 5.193391 0.666451 -0.193391
v 5.358464 0.009878 -0.358464
v -2.633931 -0.050477 3.838588
v -2.013308 -0.050477 4.197493
v -2.992836 -0.050477 4.459211
v -2.372212 -0.050477 4.818116
v -2.573670 0.666451 4.064125
v -2.633931 0.009878 3.838588
v -2.238844 0.666451 4.257753
v -2.013308 0.009878 4.197493
v -2.767299 0.666451 4.398951
v -2.992836 0.009878 4.459211
v -2.432473 0.666451 4.592579
v -2.372212 0.009878 4.818116
v -2.004368 -0.050477 -4.201769
v -2.625754 -0.050477 -3.844186
v -2.361950 -0.050477 -4.823154
v -2.983336 -0.050477 -4.465572
v -2.229775 0.666451 -4.262509
v -2.004368 0.009878 -4.201769
v -2.565013 0.666451 -4.069593
v -2.625754 0.009878 -3.844186
v -2.422691 0.666451 -4.597747
v -2.361950 0.009878 -4.823154
v -2.757929 0.666451 -4.404831
v -2.983336 0.009878 -4.465572
vn -0.0000 -1.0000 -0.0000
vn -0.9698 0.2438 -0.0000
vn -0.0000 0.2438 -0.9698
vn 0.9698 0.2438 -0.0000
vn -0.0000 0.2438 0.9698
vn -0.0000 -0.0000 1.0000
vn -1.0000 -0.0000 -0.0000
vn -0.0000 1.0000 -0.0000
vn -0.0000 -0.0000 -1.0000
vn 1.0000 -0.0000 -0.0000
vn 0.4855 0.2438 -0.8395
vn 0.8395 0.2438 0.4855
vn -0.4855 0.2438 0.8395
vn -0.8395 0.2438 -0.4855
vn -0.8657 -0.0000 -0.5006
vn 0.5006 -0.0000 -0.8657
vn 0.8657 -0.0000 0.5006
vn -0.5006 -0.0000 0.8657
vn 0.4837 0.2438 0.8406
vn -0.8406 0.2438 0.4837
vn -0.4837 0.2438 -0.8406
vn 0.8406 0.2438 -0.4837
vn 0.8667 -0.0000 -0.4988
vn 0.4988 -0.0000 0.8667
vn -0.8667 -0.0000 0.4988
vn -0.4988 -0.0000 -0.8667
vt 0.375000 0.500000
vt 0.125000 0.750000
vt 0.125000 0.500000
vt 0.817437 0.557563
vt 0.875000 0.750000
vt 0.817437 0.692438
vt 0.682563 0.557563
vt 0.875000 0.500000
vt 0.682563 0.692438
vt 0.581828 0.500000
vt 0.581828 0.750000
vt 0.375000 1.000000
vt 0.375000 0.750000
vt 0.567437 0.000000
vt 0.375000 0.250000
vt 0.375000 0.000000
vt 0.567437 0.250000
vt 0.567437 1.000000
s 0
f 4/1/1 1/2/1 2/3/1
f 7/4/2 6/5/2 5/6/2
f 11/7/3 8/8/3 7/4/3
f 9/9/4 12/10/4 11/7/4
f 5/6/5 10/11/5 9/9/5
f 10/11/6 1/12/6 3/13/6
f 6/14/7 2/15/7 1/16/7
f 7/4/8 9/9/8 11/7/8
f 8/17/9 4/1/9 2/15/9
f 12/10/10 3/13/10 4/1/10
f 16/1/1 13/2/1 14/3/1
f 19/4/11 18/5/11 17/6/11
f 23/7/12 20/8/12 19/4/12
f 23/7/13 22/11/13 24/10/13
f 17/6/14 22/11/14 21/9/14
f 22/11/15 13/12/15 15/13/15
f 18/14/16 14/15/16 13/16/16
f 19/4/8 21/9/8 23/7/8
f 20/17/17 16/1/17 14/15/17
f 24/10/18 15/13/18 16/1/18
f 28/1/1 25/2/1 26/3/1
f 31/4/19 30/5/19 29/6/19
f 35/7/20 32/8/20 31/4/20
f 33/9/21 36/10/21 35/7/21
f 29/6/22 34/11/22 33/9/22
f 34/11/23 25/12/23 27/13/23
f 30/14/24 26/15/24 25/16/24
f 31/4/8 33/9/8 35/7/8
f 32/17/25 28/1/25 26/15/25
f 36/10/26 27/13/26 28/1/26
f 4/1/1 3/13/1 1/2/1
f 7/4/2 8/8/2 6/5/2
f 11/7/3 12/10/3 8/8/3
f 9/9/4 10/11/4 12/10/4
f 5/6/5 6/5/5 10/11/5
f 10/11/6 6/18/6 1/12/6
f 6/14/7 8/17/7 2/15/7
f 7/4/8 5/6/8 9/9/8
f 8/17/9 12/10/9 4/1/9
f 12/10/10 10/11/10 3/13/10
f 16/1/1 15/13/1 13/2/1
f 19/4/11 20/8/11 18/5/11
f 23/7/12 24/10/12 20/8/12
f 23/7/13 21/9/13 22/11/13
f 17/6/14 18/5/14 22/11/14
f 22/11/15 18/18/15 13/12/15
f 18/14/16 20/17/16 14/15/16
f 19/4/8 17/6/8 21/9/8
f 20/17/17 24/10/17 16/1/17
f 24/10/18 22/11/18 15/13/18
f 28/1/1 27/13/1 25/2/1
f 31/4/19 32/8/19 30/5/19
f 35/7/20 36/10/20 32/8/20
f 33/9/21 34/11/21 36/10/21
f 29/6/22 30/5/22 34/11/22
f 34/11/23 30/18/23 25/12/23
f 30/14/24 32/17/24 26/15/24
f 31/4/8 29/6/8 33/9/8
f 32/17/25 36/10/25 28/1/25
f 36/10/26 34/11/26 27/13/26
o Cylinder
v -0.010760 -0.019203 5.996821
v -0.010760 -0.334455 5.996821
v 1.166492 -0.019203 5.880872
v 1.166492 -0.334455 5.880872
v 2.298504 -0.019203 5.537480
v 2.298504 -0.334455 5.537480
v 3.341771 -0.019203 4.979842
v 3.341771 -0.334455 4.979842
v 4.256203 -0.019203 4.229387
v 4.256203 -0.334455 4.229387
v 5.006658 -0.019203 3.314956
v 5.006658 -0.334455 3.314956
v 5.564295 -0.019203 2.271688
v 5.564295 -0.334455 2.271688
v 5.907687 -0.019203 1.139677
v 5.907687 -0.334455 1.139677
v 6.023637 -0.019203 -0.037576
v 6.023637 -0.334455 -0.037576
v 5.907687 -0.019203 -1.214828
v 5.907687 -0.334456 -1.214828
v 5.564295 -0.019203 -2.346840
v 5.564295 -0.334456 -2.346840
v 5.006658 -0.019203 -3.390107
v 5.006658 -0.334456 -3.390107
v 4.256203 -0.019204 -4.304539
v 4.256203 -0.334456 -4.304539
v 3.341771 -0.019204 -5.054994
v 3.341771 -0.334456 -5.054994
v 2.298504 -0.019204 -5.612631
v 2.298504 -0.334456 -5.612631
v 1.166492 -0.019204 -5.956023
v 1.166492 -0.334456 -5.956023
v -0.010760 -0.019204 -6.071973
v -0.010760 -0.334456 -6.071973
v -1.188013 -0.019204 -5.956023
v -1.188013 -0.334456 -5.956023
v -2.320024 -0.019204 -5.612631
v -2.320024 -0.334456 -5.612631
v -3.363292 -0.019204 -5.054994
v -3.363292 -0.334456 -5.054994
v -4.277723 -0.019204 -4.304539
v -4.277723 -0.334456 -4.304539
v -5.028178 -0.019203 -3.390107
v -5.028178 -0.334456 -3.390107
v -5.585816 -0.019203 -2.346840
v -5.585816 -0.334456 -2.346840
v -5.929208 -0.019203 -1.214828
v -5.929208 -0.334456 -1.214828
v -6.045157 -0.019203 -0.037576
v -6.045157 -0.334455 -0.037576
v -5.929208 -0.019203 1.139677
v -5.929208 -0.334455 1.139677
v -5.585816 -0.019203 2.271688
v -5.585816 -0.334455 2.271688
v -5.028178 -0.019203 3.314956
v -5.028178 -0.334455 3.314956
v -4.277723 -0.019203 4.229387
v -4.277723 -0.334455 4.229387
v -3.363292 -0.019203 4.979842
v -3.363292 -0.334455 4.979842
v -2.320024 -0.019203 5.537480
v -2.320024 -0.334455 5.537480
v -1.188013 -0.019203 5.880872
v -1.188013 -0.334455 5.880872
vn 0.0980 -0.0000 0.9952
vn 0.2903 -0.0000 0.9569
vn 0.4714 -0.0000 0.8819
vn 0.6344 -0.0000 0.7730
vn 0.7730 -0.0000 0.6344
vn 0.8819 -0.0000 0.4714
vn 0.9569 -0.0000 0.2903
vn 0.9952 -0.0000 0.0980
vn 0.9952 -0.0000 -0.0980
vn 0.9569 -0.0000 -0.2903
vn 0.8819 -0.0000 -0.4714
vn 0.7730 -0.0000 -0.6344
vn 0.6344 -0.0000 -0.7730
vn 0.4714 -0.0000 -0.8819
vn 0.2903 -0.0000 -0.9569
vn 0.0980 -0.0000 -0.9952
vn -0.0980 -0.0000 -0.9952
vn -0.2903 -0.0000 -0.9569
vn -0.4714 -0.0000 -0.8819
vn -0.6344 -0.0000 -0.7730
vn -0.7730 -0.0000 -0.6344
vn -0.8819 -0.0000 -0.4714
vn -0.9569 -0.0000 -0.2903
vn -0.9952 -0.0000 -0.0980
vn -0.9952 -0.0000 0.0980
vn -0.9569 -0.0000 0.2903
vn -0.8819 -0.0000 0.4714
vn -0.7730 -0.0000 0.6344
vn -0.6344 -0.0000 0.7730
vn -0.4714 -0.0000 0.8819
vn -0.0000 -1.0000 -0.0000
vn -0.2903 -0.0000 0.9569
vn -0.0980 -0.0000 0.9952
vn -0.0000 1.0000 -0.0000
vt 1.000000 1.000000
vt 0.968750 0.500000
vt 1.000000 0.500000
vt 0.968750 1.000000
vt 0.937500 0.500000
vt 0.937500 1.000000
vt 0.906250 0.500000
vt 0.906250 1.000000
vt 0.875000 0.500000
vt 0.875000 1.000000
vt 0.843750 0.500000
vt 0.843750 1.000000
vt 0.812500 0.500000
vt 0.812500 1.000000
vt 0.781250 0.500000
vt 0.781250 1.000000
vt 0.750000 0.500000
vt 0.750000 1.000000
vt 0.718750 0.500000
vt 0.718750 1.000000
vt 0.687500 0.500000
vt 0.687500 1.000000
vt 0.656250 0.500000
vt 0.656250 1.000000
vt 0.625000 0.500000
vt 0.625000 1.000000
vt 0.593750 0.500000
vt 0.593750 1.000000
vt 0.562500 0.500000
vt 0.562500 1.000000
vt 0.531250 0.500000
vt 0.531250 1.000000
vt 0.500000 0.500000
vt 0.500000 1.000000
vt 0.468750 0.500000
vt 0.468750 1.000000
vt 0.437500 0.500000
vt 0.437500 1.000000
vt 0.406250 0.500000
vt 0.406250 1.000000
vt 0.375000 0.500000
vt 0.375000 1.000000
vt 0.343750 0.500000
vt 0.343750 1.000000
vt 0.312500 0.500000
vt 0.312500 1.000000
vt 0.281250 0.500000
vt 0.281250 1.000000
vt 0.250000 0.500000
vt 0.250000 1.000000
vt 0.218750 0.500000
vt 0.218750 1.000000
vt 0.187500 0.500000
vt 0.187500 1.000000
vt 0.156250 0.500000
vt 0.156250 1.000000
vt 0.125000 0.500000
vt 0.125000 1.000000
vt 0.093750 0.500000
vt 0.093750 1.000000
vt 0.062500 0.500000
vt 0.158156 0.028269
vt 0.471731 0.158156
vt 0.341844 0.471731
vt 0.062500 1.000000
vt 0.031250 0.500000
vt 0.031250 1.000000
vt 0.000000 0.500000
vt 0.796822 0.014612
vt 0.514612 0.203178
vt 0.703178 0.485388
vt 0.296822 0.485388
vt 0.250000 0.490000
vt 0.203178 0.485388
vt 0.158156 0.471731
vt 0.116663 0.449553
vt 0.080294 0.419706
vt 0.050447 0.383337
vt 0.028269 0.341844
vt 0.014612 0.296822
vt 0.010000 0.250000
vt 0.014612 0.203178
vt 0.028269 0.158156
vt 0.050447 0.116663
vt 0.080294 0.080294
vt 0.116663 0.050447
vt 0.203178 0.014612
vt 0.250000 0.010000
vt 0.296822 0.014612
vt 0.341844 0.028269
vt 0.383337 0.050447
vt 0.419706 0.080294
vt 0.449553 0.116663
vt 0.485388 0.203178
vt 0.490000 0.250000
vt 0.485388 0.296822
vt 0.471731 0.341844
vt 0.449553 0.383337
vt 0.419706 0.419706
vt 0.383337 0.449553
vt 0.000000 1.000000
vt 0.750000 0.490000
vt 0.796822 0.485388
vt 0.841844 0.471731
vt 0.883337 0.449553
vt 0.919706 0.419706
vt 0.949553 0.383337
vt 0.971731 0.341844
vt 0.985388 0.296822
vt 0.990000 0.250000
vt 0.985388 0.203178
vt 0.971731 0.158156
vt 0.949553 0.116663
vt 0.919706 0.080294
vt 0.883337 0.050447
vt 0.841844 0.028269
vt 0.750000 0.010000
vt 0.703178 0.014612
vt 0.658156 0.028269
vt 0.616663 0.050447
vt 0.580294 0.080294
vt 0.550447 0.116663
vt 0.528269 0.158156
vt 0.510000 0.250000
vt 0.514612 0.296822
vt 0.528269 0.341844
vt 0.550447 0.383337
vt 0.580294 0.419706
vt 0.616663 0.449553
vt 0.658156 0.471731
s 0
f 38/19/27 39/20/27 37/21/27
f 40/22/28 41/23/28 39/20/28
f 42/24/29 43/25/29 41/23/29
f 44/26/30 45/27/30 43/25/30
f 46/28/31 47/29/31 45/27/31
f 48/30/32 49/31/32 47/29/32
f 50/32/33 51/33/33 49/31/33
f 52/34/34 53/35/34 51/33/34
f 54/36/35 55/37/35 53/35/35
f 56/38/36 57/39/36 55/37/36
f 58/40/37 59/41/37 57/39/37
f 60/42/38 61/43/38 59/41/38
f 62/44/39 63/45/39 61/43/39
f 64/46/40 65/47/40 63/45/40
f 66/48/41 67/49/41 65/47/41
f 68/50/42 69/51/42 67/49/42
f 70/52/43 71/53/43 69/51/43
f 72/54/44 73/55/44 71/53/44
f 74/56/45 75/57/45 73/55/45
f 76/58/46 77/59/46 75/57/46
f 78/60/47 79/61/47 77/59/47
f 80/62/48 81/63/48 79/61/48
f 82/64/49 83/65/49 81/63/49
f 84/66/50 85/67/50 83/65/50
f 86/68/51 87/69/51 85/67/51
f 88/70/52 89/71/52 87/69/52
f 90/72/53 91/73/53 89/71/53
f 92/74/54 93/75/54 91/73/54
f 94/76/55 95/77/55 93/75/55
f 96/78/56 97/79/56 95/77/56
f 74/80/57 58/81/57 42/82/57
f 98/83/58 99/84/58 97/79/58
f 100/85/59 37/86/59 99/84/59
f 67/87/60 83/88/60 99/89/60
f 38/19/27 40/22/27 39/20/27
f 40/22/28 42/24/28 41/23/28
f 42/24/29 44/26/29 43/25/29
f 44/26/30 46/28/30 45/27/30
f 46/28/31 48/30/31 47/29/31
f 48/30/32 50/32/32 49/31/32
f 50/32/33 52/34/33 51/33/33
f 52/34/34 54/36/34 53/35/34
f 54/36/35 56/38/35 55/37/35
f 56/38/36 58/40/36 57/39/36
f 58/40/37 60/42/37 59/41/37
f 60/42/38 62/44/38 61/43/38
f 62/44/39 64/46/39 63/45/39
f 64/46/40 66/48/40 65/47/40
f 66/48/41 68/50/41 67/49/41
f 68/50/42 70/52/42 69/51/42
f 70/52/43 72/54/43 71/53/43
f 72/54/44 74/56/44 73/55/44
f 74/56/45 76/58/45 75/57/45
f 76/58/46 78/60/46 77/59/46
f 78/60/47 80/62/47 79/61/47
f 80/62/48 82/64/48 81/63/48
f 82/64/49 84/66/49 83/65/49
f 84/66/50 86/68/50 85/67/50
f 86/68/51 88/70/51 87/69/51
f 88/70/52 90/72/52 89/71/52
f 90/72/53 92/74/53 91/73/53
f 92/74/54 94/76/54 93/75/54
f 94/76/55 96/78/55 95/77/55
f 96/78/56 98/83/56 97/79/56
f 42/82/57 40/90/57 38/91/57
f 38/91/57 100/92/57 98/93/57
f 98/93/57 96/94/57 94/95/57
f 94/95/57 92/96/57 90/97/57
f 90/97/57 88/98/57 86/99/57
f 86/99/57 84/100/57 82/101/57
f 82/101/57 80/102/57 78/103/57
f 78/103/57 76/104/57 74/80/57
f 74/80/57 72/105/57 70/106/57
f 70/106/57 68/107/57 66/108/57
f 66/108/57 64/109/57 62/110/57
f 62/110/57 60/111/57 58/81/57
f 58/81/57 56/112/57 54/113/57
f 54/113/57 52/114/57 50/115/57
f 50/115/57 48/116/57 46/117/57
f 46/117/57 44/118/57 42/82/57
f 42/82/57 38/91/57 98/93/57
f 98/93/57 94/95/57 90/97/57
f 90/97/57 86/99/57 82/101/57
f 82/101/57 78/103/57 74/80/57
f 74/80/57 70/106/57 66/108/57
f 66/108/57 62/110/57 58/81/57
f 58/81/57 54/113/57 50/115/57
f 50/115/57 46/117/57 42/82/57
f 42/82/57 98/93/57 90/97/57
f 90/97/57 82/101/57 74/80/57
f 74/80/57 66/108/57 58/81/57
f 58/81/57 50/115/57 42/82/57
f 42/82/57 90/97/57 74/80/57
f 98/83/58 100/85/58 99/84/58
f 100/85/59 38/119/59 37/86/59
f 99/89/60 37/120/60 39/121/60
f 39/121/60 41/122/60 43/123/60
f 43/123/60 45/124/60 47/125/60
f 47/125/60 49/126/60 51/127/60
f 51/127/60 53/128/60 55/129/60
f 55/129/60 57/130/60 59/131/60
f 59/131/60 61/132/60 63/133/60
f 63/133/60 65/134/60 67/87/60
f 67/87/60 69/135/60 71/136/60
f 71/136/60 73/137/60 75/138/60
f 75/138/60 77/139/60 79/140/60
f 79/140/60 81/141/60 83/88/60
f 83/88/60 85/142/60 87/143/60
f 87/143/60 89/144/60 91/145/60
f 91/145/60 93/146/60 95/147/60
f 95/147/60 97/148/60 99/89/60
f 99/89/60 39/121/60 43/123/60
f 43/123/60 47/125/60 51/127/60
f 51/127/60 55/129/60 59/131/60
f 59/131/60 63/133/60 67/87/60
f 67/87/60 71/136/60 75/138/60
f 75/138/60 79/140/60 83/88/60
f 83/88/60 87/143/60 91/145/60
f 91/145/60 95/147/60 99/89/60
f 99/89/60 43/123/60 51/127/60
f 51/127/60 59/131/60 67/87/60
f 67/87/60 75/138/60 83/88/60
f 83/88/60 91/145/60 99/89/60
f 99/89/60 51/127/60 67/87/60
o Cube.001
v 2.692286 0.000000 -7.648096
v 2.692286 0.000000 -9.083588
v 3.007704 0.000000 -7.648096
v 3.007704 0.000000 -9.083588
v 2.692286 5.520699 -7.648096
v 2.692286 5.520699 -9.083588
v 2.861150 6.000000 -8.395087
v 3.007704 5.520699 -7.648096
v 3.007704 5.520699 -9.083588
vn -0.0000 -1.0000 -0.0000
vn -0.0000 0.8416 0.5400
vn -0.0000 0.8207 -0.5713
vn 0.9563 0.2924 -0.0000
vn -0.0000 -0.0000 1.0000
vn -1.0000 -0.0000 -0.0000
vn -0.9432 0.3323 -0.0000
vn -0.0000 -0.0000 -1.0000
vn 1.0000 -0.0000 -0.0000
vt 0.375000 0.500000
vt 0.125000 0.750000
vt 0.125000 0.500000
vt 0.000000 0.000000
vt 0.620902 1.000000
vt 0.621926 0.750000
vt 0.620902 0.250000
vt 0.621926 0.500000
vt 0.375000 1.000000
vt 0.375000 0.750000
vt 0.620902 0.000000
vt 0.375000 0.250000
vt 0.375000 0.000000
s 0
f 104/149/61 101/150/61 102/151/61
f 107/152/62 105/153/62 108/154/62
f 106/155/63 107/152/63 109/156/63
f 109/156/64 107/152/64 108/154/64
f 108/154/65 101/157/65 103/158/65
f 105/159/66 102/160/66 101/161/66
f 105/159/67 107/152/67 106/155/67
f 106/155/68 104/149/68 102/160/68
f 109/156/69 103/158/69 104/149/69
f 104/149/61 103/158/61 101/150/61
f 108/154/65 105/153/65 101/157/65
f 105/159/66 106/155/66 102/160/66
f 106/155/68 109/156/68 104/149/68
f 109/156/69 108/154/69 103/158/69
