{
	"asset":{
		"generator":"Khronos glTF Blender I/O v5.0.21",
		"version":"2.0"
	},
	"scene":0,
	"scenes":[
		{
			"name":"Scene",
			"nodes":[
				0,
				1,
				2,
				3,
				4
			]
		}
	],
	"nodes":[
		{
			"mesh":0,
			"name":"Pedestals",
			"translation":[
				5,
				0.21119296550750732,
				0
			]
		},
		{
			"mesh":1,
			"name":"Stage",
			"translation":[
				-0.010760307312011719,
				-0.22762618958950043,
				-0.037575721740722656
			]
		},
		{
			"mesh":2,
			"name":"Sword"
		},
		{
			"mesh":3,
			"name":"Shield"
		},
		{
			"mesh":4,
			"name":"Staff"
		}
	],
	"materials":[
		{
			"doubleSided":true,
			"name":"Material.001",
			"pbrMetallicRoughness":{
				"baseColorTexture":{
					"index":0
				},
				"metallicFactor":0,
				"roughnessFactor":0.5
			}
		},
		{
			"doubleSided":true,
			"name":"Material",
			"pbrMetallicRoughness":{
				"baseColorTexture":{
					"index":1
				},
				"metallicFactor":0,
				"roughnessFactor":0.5
			}
		}
	],
	"meshes":[
		{
			"name":"Cube.001",
			"primitives":[
				{
					"attributes":{
						"POSITION":0,
						"NORMAL":1,
						"TEXCOORD_0":2,
						"TANGENT":3
					},
					"indices":4,
					"material":0
				}
			]
		},
		{
			"name":"Cylinder.001",
			"primitives":[
				{
					"attributes":{
						"POSITION":5,
						"NORMAL":6,
						"TEXCOORD_0":7,
						"TANGENT":8,
						"COLOR_0":9,
						"COLOR_1":10
					},
					"indices":11,
					"material":1
				}
			]
		},
		{
			"name":"Cube",
			"primitives":[
				{
					"attributes":{
						"POSITION":12,
						"NORMAL":13,
						"TEXCOORD_0":14,
						"TANGENT":15,
						"COLOR_0":16
					},
					"indices":17
				}
			]
		},
		{
			"name":"Cube.003",
			"primitives":[
				{
					"attributes":{
						"POSITION":18,
						"NORMAL":19,
						"TEXCOORD_0":20,
						"TANGENT":21,
						"COLOR_0":22
					},
					"indices":23
				}
			]
		},
		{
			"name":"Sphere.003",
			"primitives":[
				{
					"attributes":{
						"POSITION":24,
						"NORMAL":25,
						"TEXCOORD_0":26,
						"TANGENT":27,
						"COLOR_0":28
					},
					"indices":29
				}
			]
		}
	],
	"textures":[
		{
			"sampler":0,
			"source":0
		},
		{
			"sampler":0,
			"source":1
		}
	],
	"images":[
		{
			"mimeType":"image/png",
			"name":"pedestal texture",
			"uri":"pedestal%20texture.png"
		},
		{
			"mimeType":"image/png",
			"name":"Station_of_Awakening-_Snow_White_(Art)_KH",
			"uri":"Station_of_Awakening-_Snow_White_%28Art%29_KH.png"
		}
	],
	"accessors":[
		{
			"bufferView":0,
			"componentType":5126,
			"count":120,
			"max":[
				0.35846424102783203,
				0.4552581310272217,
				4.818116188049316
			],
			"min":[
				-7.992835998535156,
				-0.2616702914237976,
				-4.823154449462891
			],
			"type":"VEC3"
		},
		{
			"bufferView":1,
			"componentType":5126,
			"count":120,
			"type":"VEC3"
		},
		{
			"bufferView":2,
			"componentType":5126,
			"count":120,
			"type":"VEC2"
		},
		{
			"bufferView":3,
			"componentType":5126,
			"count":120,
			"type":"VEC4"
		},
		{
			"bufferView":4,
			"componentType":5123,
			"count":180,
			"type":"SCALAR"
		},
		{
			"bufferView":5,
			"componentType":5126,
			"count":96,
			"max":[
				6.171398162841797,
				0.2577562928199768,
				6.1713972091674805
			],
			"min":[
				-6.1713972091674805,
				-0.2577562928199768,
				-6.171398162841797
			],
			"type":"VEC3"
		},
		{
			"bufferView":6,
			"componentType":5126,
			"count":96,
			"type":"VEC3"
		},
		{
			"bufferView":7,
			"componentType":5126,
			"count":96,
			"type":"VEC2"
		},
		{
			"bufferView":8,
			"componentType":5126,
			"count":96,
			"type":"VEC4"
		},
		{
			"bufferView":9,
			"componentType":5121,
			"count":96,
			"normalized":true,
			"type":"VEC4"
		},
		{
			"bufferView":10,
			"componentType":5123,
			"count":96,
			"normalized":true,
			"type":"VEC4"
		},
		{
			"bufferView":11,
			"componentType":5123,
			"count":180,
			"type":"SCALAR"
		},
		{
			"bufferView":12,
			"componentType":5126,
			"count":334,
			"max":[
				0.03345823287963867,
				0.9561337232589722,
				0.25058889389038086
			],
			"min":[
				-0.033458709716796875,
				-0.24339479207992554,
				-0.23829936981201172
			],
			"type":"VEC3"
		},
		{
			"bufferView":13,
			"componentType":5126,
			"count":334,
			"type":"VEC3"
		},
		{
			"bufferView":14,
			"componentType":5126,
			"count":334,
			"type":"VEC2"
		},
		{
			"bufferView":15,
			"componentType":5126,
			"count":334,
			"type":"VEC4"
		},
		{
			"bufferView":16,
			"componentType":5123,
			"count":334,
			"normalized":true,
			"type":"VEC4"
		},
		{
			"bufferView":17,
			"componentType":5123,
			"count":354,
			"type":"SCALAR"
		},
		{
			"bufferView":18,
			"componentType":5126,
			"count":312,
			"max":[
				0.037241820245981216,
				0.49180465936660767,
				0.2442042976617813
			],
			"min":[
				-0.05257606506347656,
				-0.22336068749427795,
				-0.35645201802253723
			],
			"type":"VEC3"
		},
		{
			"bufferView":19,
			"componentType":5126,
			"count":312,
			"type":"VEC3"
		},
		{
			"bufferView":20,
			"componentType":5126,
			"count":312,
			"type":"VEC2"
		},
		{
			"bufferView":21,
			"componentType":5126,
			"count":312,
			"type":"VEC4"
		},
		{
			"bufferView":22,
			"componentType":5123,
			"count":312,
			"normalized":true,
			"type":"VEC4"
		},
		{
			"bufferView":23,
			"componentType":5123,
			"count":432,
			"type":"SCALAR"
		},
		{
			"bufferView":24,
			"componentType":5126,
			"count":1335,
			"max":[
				0.16043710708618164,
				0.2537059783935547,
				0.11130666732788086
			],
			"min":[
				-0.20200824737548828,
				-0.877495288848877,
				-0.11129903793334961
			],
			"type":"VEC3"
		},
		{
			"bufferView":25,
			"componentType":5126,
			"count":1335,
			"type":"VEC3"
		},
		{
			"bufferView":26,
			"componentType":5126,
			"count":1335,
			"type":"VEC2"
		},
		{
			"bufferView":27,
			"componentType":5126,
			"count":1335,
			"type":"VEC4"
		},
		{
			"bufferView":28,
			"componentType":5123,
			"count":1335,
			"normalized":true,
			"type":"VEC4"
		},
		{
			"bufferView":29,
			"componentType":5123,
			"count":1824,
			"type":"SCALAR"
		}
	],
	"bufferViews":[
		{
			"buffer":0,
			"byteLength":1440,
			"byteOffset":0,
			"target":34962
		},
		{
			"buffer":0,
			"byteLength":1440,
			"byteOffset":1440,
			"target":34962
		},
		{
			"buffer":0,
			"byteLength":960,
			"byteOffset":2880,
			"target":34962
		},
		{
			"buffer":0,
			"byteLength":1920,
			"byteOffset":3840,
			"target":34962
		},
		{
			"buffer":0,
			"byteLength":360,
			"byteOffset":5760,
			"target":34963
		},
		{
			"buffer":0,
			"byteLength":1152,
			"byteOffset":6120,
			"target":34962
		},
		{
			"buffer":0,
			"byteLength":1152,
			"byteOffset":7272,
			"target":34962
		},
		{
			"buffer":0,
			"byteLength":768,
			"byteOffset":8424,
			"target":34962
		},
		{
			"buffer":0,
			"byteLength":1536,
			"byteOffset":9192,
			"target":34962
		},
		{
			"buffer":0,
			"byteLength":384,
			"byteOffset":10728,
			"target":34962
		},
		{
			"buffer":0,
			"byteLength":768,
			"byteOffset":11112,
			"target":34962
		},
		{
			"buffer":0,
			"byteLength":360,
			"byteOffset":11880,
			"target":34963
		},
		{
			"buffer":0,
			"byteLength":4008,
			"byteOffset":12240,
			"target":34962
		},
		{
			"buffer":0,
			"byteLength":4008,
			"byteOffset":16248,
			"target":34962
		},
		{
			"buffer":0,
			"byteLength":2672,
			"byteOffset":20256,
			"target":34962
		},
		{
			"buffer":0,
			"byteLength":5344,
			"byteOffset":22928,
			"target":34962
		},
		{
			"buffer":0,
			"byteLength":2672,
			"byteOffset":28272,
			"target":34962
		},
		{
			"buffer":0,
			"byteLength":708,
			"byteOffset":30944,
			"target":34963
		},
		{
			"buffer":0,
			"byteLength":3744,
			"byteOffset":31652,
			"target":34962
		},
		{
			"buffer":0,
			"byteLength":3744,
			"byteOffset":35396,
			"target":34962
		},
		{
			"buffer":0,
			"byteLength":2496,
			"byteOffset":39140,
			"target":34962
		},
		{
			"buffer":0,
			"byteLength":4992,
			"byteOffset":41636,
			"target":34962
		},
		{
			"buffer":0,
			"byteLength":2496,
			"byteOffset":46628,
			"target":34962
		},
		{
			"buffer":0,
			"byteLength":864,
			"byteOffset":49124,
			"target":34963
		},
		{
			"buffer":0,
			"byteLength":16020,
			"byteOffset":49988,
			"target":34962
		},
		{
			"buffer":0,
			"byteLength":16020,
			"byteOffset":66008,
			"target":34962
		},
		{
			"buffer":0,
			"byteLength":10680,
			"byteOffset":82028,
			"target":34962
		},
		{
			"buffer":0,
			"byteLength":21360,
			"byteOffset":92708,
			"target":34962
		},
		{
			"buffer":0,
			"byteLength":10680,
			"byteOffset":114068,
			"target":34962
		},
		{
			"buffer":0,
			"byteLength":3648,
			"byteOffset":124748,
			"target":34963
		}
	],
	"samplers":[
		{
			"magFilter":9729,
			"minFilter":9987
		}
	],
	"buffers":[
		{
			"byteLength":128396,
			"uri":"project_models.bin"
		}
	]
}
